<svg id="PACK" xmlns="http://www.w3.org/2000/svg" viewBox="0 0 18.15 16"><defs><style>.cls-1{fill:#e62246;}.cls-2{fill:#bf1d3a;}.cls-3{fill:#ff274d;}.cls-4{fill:#801327;}.cls-5{fill:#400a13;}</style></defs><title>Logo icon-svg@16px</title><polygon id="h2" class="cls-1" points="3.77 8.09 7.24 6 9.86 6.49 10.12 7.08 6.92 10.11 4.84 11.36 1.8 10.35 0.66 11.9 1.23 9.72 3.46 9.33 3.77 8.09"/><polygon id="H3" class="cls-2" points="6.92 10.11 10.11 7.04 12.04 11.35 10.15 11.6 5.77 11.6 6.92 10.11"/><polygon id="H4" class="cls-3" points="12.02 11.31 13.51 14.61 13.51 16 3.14 16 6.42 15.06 7.06 12.42 10.16 11.6 12.02 11.31"/><polygon class="cls-2" points="13.73 16 16.46 12.28 13.3 4.69 10.94 1.64 9.89 5.37 13.73 14.58 13.73 16"/><polygon class="cls-4" points="13.32 4.72 10.94 1.63 14.78 0.02 15.03 2.9 13.32 4.72"/><polygon class="cls-5" points="14.78 0 15.04 2.94 16.09 7.26 18.15 2.77 14.78 0"/><path class="cls-3" d="M4.44,3l.08-1.11-1,1-1.84.91L0,7l2.15-.3-.46.78,2.07.63L7.23,6ZM1.8,4.66,2,4l.79-.24Z"/></svg>