
<svg style="position: absolute; width: 0; height: 0; overflow: hidden;" version="1.1" xmlns="http://www.w3.org/2000/svg" xmlns:xlink="http://www.w3.org/1999/xlink">
<defs>
<symbol id="icon-times" viewBox="0 0 48 48">
<title>times</title>
<path class="path1" d="M34.828 13.172c-1.56-1.562-4.096-1.562-5.656 0l-5.172 5.172-5.172-5.172c-1.56-1.562-4.096-1.562-5.656 0-1.562 1.562-1.562 4.094 0 5.656l5.17 5.172-5.17 5.172c-1.562 1.562-1.562 4.094 0 5.656 0.78 0.782 1.804 1.172 2.828 1.172s2.048-0.39 2.828-1.172l5.172-5.172 5.172 5.172c0.78 0.782 1.804 1.172 2.828 1.172s2.048-0.39 2.828-1.172c1.562-1.562 1.562-4.094 0-5.656l-5.17-5.172 5.17-5.172c1.562-1.562 1.562-4.094 0-5.656z"></path>
</symbol>
<symbol id="icon-tick" viewBox="0 0 48 48">
<title>tick</title>
<path class="path1" d="M33.944 12.502c-1.934-1.076-4.37-0.376-5.44 1.554l-7.426 13.364-4.25-4.25c-1.562-1.562-4.094-1.562-5.656 0s-1.562 4.094 0 5.656l8 8c0.756 0.758 1.776 1.174 2.828 1.174 0.184 0 0.37-0.012 0.554-0.040 1.242-0.174 2.332-0.92 2.942-2.018l10-18c1.074-1.932 0.378-4.366-1.552-5.44z"></path>
</symbol>
<symbol id="icon-action" viewBox="0 0 48 48">
<title>action</title>
<path class="path1" d="M36 20h-8v-8c0-2.208-1.792-4-4-4s-4 1.792-4 4l0.142 8h-8.142c-2.208 0-4 1.792-4 4s1.792 4 4 4l8.142-0.142-0.142 8.142c0 2.208 1.792 4 4 4s4-1.792 4-4v-8.142l8 0.142c2.208 0 4-1.792 4-4s-1.792-4-4-4z"></path>
</symbol>
<symbol id="icon-arrow-right-thick" viewBox="0 0 48 48">
<title>arrow-right-thick</title>
<path class="path1" d="M21.172 13.172c-1.562 1.558-1.562 4.094 0 5.656l3.172 3.172h-14.488c-2.208 0-4 1.79-4 4 0 2.208 1.792 4 4 4h14.488l-3.172 3.172c-1.562 1.558-1.562 4.094 0 5.656 0.782 0.782 1.804 1.172 2.828 1.172s2.046-0.39 2.828-1.172l12.828-12.828-12.828-12.828c-1.562-1.562-4.094-1.562-5.656 0z"></path>
</symbol>
<symbol id="icon-arrow-left-thick" viewBox="0 0 48 48">
<title>arrow-left-thick</title>
<path class="path1" d="M36 22h-14.488l3.172-3.172c1.562-1.562 1.562-4.098 0-5.656-1.562-1.562-4.094-1.562-5.656 0l-12.828 12.828 12.828 12.828c0.78 0.782 1.804 1.172 2.828 1.172s2.046-0.39 2.828-1.172c1.562-1.562 1.562-4.098 0-5.656l-3.172-3.172h14.488c2.208 0 4-1.792 4-4 0-2.21-1.792-4-4-4z"></path>
</symbol>
<symbol id="icon-th-small" viewBox="0 0 48 48">
<title>th-small</title>
<path class="path1" d="M15 38c0 2.761-2.239 5-5 5s-5-2.239-5-5c0-2.761 2.239-5 5-5s5 2.239 5 5z"></path>
<path class="path2" d="M15 24c0 2.761-2.239 5-5 5s-5-2.239-5-5c0-2.761 2.239-5 5-5s5 2.239 5 5z"></path>
<path class="path3" d="M15 10c0 2.761-2.239 5-5 5s-5-2.239-5-5c0-2.761 2.239-5 5-5s5 2.239 5 5z"></path>
<path class="path4" d="M29 38c0 2.761-2.239 5-5 5s-5-2.239-5-5c0-2.761 2.239-5 5-5s5 2.239 5 5z"></path>
<path class="path5" d="M29 24c0 2.761-2.239 5-5 5s-5-2.239-5-5c0-2.761 2.239-5 5-5s5 2.239 5 5z"></path>
<path class="path6" d="M29 10c0 2.761-2.239 5-5 5s-5-2.239-5-5c0-2.761 2.239-5 5-5s5 2.239 5 5z"></path>
<path class="path7" d="M43 38c0 2.761-2.239 5-5 5s-5-2.239-5-5c0-2.761 2.239-5 5-5s5 2.239 5 5z"></path>
<path class="path8" d="M43 24c0 2.761-2.239 5-5 5s-5-2.239-5-5c0-2.761 2.239-5 5-5s5 2.239 5 5z"></path>
<path class="path9" d="M43 10c0 2.761-2.239 5-5 5s-5-2.239-5-5c0-2.761 2.239-5 5-5s5 2.239 5 5z"></path>
</symbol>
<symbol id="icon-th-menu" viewBox="0 0 48 48">
<title>th-menu</title>
<path class="path1" d="M38 34h-28c-2.206 0-4 1.794-4 4s1.794 4 4 4h28c2.206 0 4-1.794 4-4s-1.794-4-4-4z"></path>
<path class="path2" d="M38 20h-28c-2.206 0-4 1.794-4 4s1.794 4 4 4h28c2.206 0 4-1.794 4-4s-1.794-4-4-4z"></path>
<path class="path3" d="M38 6h-28c-2.206 0-4 1.794-4 4s1.794 4 4 4h28c2.206 0 4-1.794 4-4s-1.794-4-4-4z"></path>
</symbol>
<symbol id="icon-star" viewBox="0 0 48 48">
<title>star</title>
<path class="path1" d="M18.724 18.316c0 0-6.32 0.7-10.536 1.168-0.38 0.046-0.716 0.3-0.842 0.686s0 0.788 0.28 1.042c3.132 2.858 7.838 7.138 7.838 7.138-0.004 0-1.292 6.226-2.148 10.38-0.072 0.376 0.064 0.774 0.392 1.012 0.326 0.238 0.746 0.242 1.076 0.056 3.688-2.096 9.212-5.248 9.212-5.248s5.526 3.152 9.208 5.25c0.336 0.184 0.756 0.18 1.082-0.058 0.328-0.238 0.464-0.636 0.39-1.010-0.856-4.156-2.142-10.382-2.142-10.382s4.706-4.28 7.838-7.132c0.28-0.262 0.404-0.664 0.28-1.048s-0.46-0.638-0.84-0.682c-4.216-0.472-10.538-1.172-10.538-1.172s-2.62-5.796-4.366-9.66c-0.164-0.346-0.508-0.588-0.912-0.588s-0.75 0.244-0.906 0.588c-1.748 3.864-4.366 9.66-4.366 9.66z"></path>
</symbol>
<symbol id="icon-delete" viewBox="0 0 48 48">
<title>delete</title>
<path class="path1" d="M24 8c-8.838 0-16 7.164-16 16s7.162 16 16 16 16-7.164 16-16-7.162-16-16-16zM31.414 28.586c0.782 0.782 0.782 2.046 0 2.828-0.39 0.39-0.902 0.586-1.414 0.586s-1.024-0.196-1.414-0.586l-4.586-4.586-4.586 4.586c-0.39 0.39-0.902 0.586-1.414 0.586s-1.024-0.196-1.414-0.586c-0.782-0.782-0.782-2.046 0-2.828l4.586-4.586-4.586-4.586c-0.782-0.782-0.782-2.046 0-2.828s2.046-0.782 2.828 0l4.586 4.586 4.586-4.586c0.782-0.782 2.046-0.782 2.828 0s0.782 2.046 0 2.828l-4.586 4.586 4.586 4.586z"></path>
</symbol>
<symbol id="icon-delete-outline" viewBox="0 0 48 48">
<title>delete-outline</title>
<path class="path1" d="M24 6c-9.926 0-18 8.076-18 18s8.074 18 18 18 18-8.076 18-18-8.074-18-18-18zM24 38c-7.718 0-14-6.28-14-14s6.282-14 14-14 14 6.28 14 14-6.282 14-14 14z"></path>
<path class="path2" d="M25.414 24l5.292-5.292c0.388-0.388 0.388-1.024 0-1.414-0.39-0.388-1.026-0.388-1.414 0l-5.292 5.292-5.292-5.294c-0.39-0.388-1.026-0.388-1.414 0-0.39 0.39-0.39 1.026 0 1.414l5.292 5.294-5.292 5.292c-0.39 0.39-0.39 1.026 0 1.414 0.194 0.196 0.45 0.294 0.706 0.294s0.512-0.098 0.708-0.292l5.292-5.294 5.292 5.292c0.196 0.196 0.452 0.294 0.708 0.294s0.512-0.098 0.708-0.292c0.388-0.388 0.388-1.024 0-1.414l-5.294-5.294z"></path>
</symbol>
<symbol id="icon-cog" viewBox="0 0 48 48">
<title>cog</title>
<path class="path1" d="M18.774 35.096l0.742 2.964c0.266 1.066 1.384 1.94 2.484 1.94h2c1.1 0 2.218-0.874 2.484-1.94l0.742-2.964c0.266-1.066 1.35-1.692 2.406-1.388l2.934 0.84c1.058 0.302 2.376-0.228 2.924-1.182l1-1.734c0.548-0.954 0.354-2.358-0.438-3.124l-2.196-2.122c-0.792-0.766-0.792-2.016 0.002-2.78l2.192-2.122c0.792-0.764 0.988-2.168 0.44-3.122l-1.002-1.734c-0.55-0.954-1.866-1.484-2.922-1.182l-2.934 0.84c-1.058 0.302-2.14-0.322-2.408-1.388l-0.74-2.96c-0.266-1.064-1.384-1.938-2.484-1.938h-2c-1.1 0-2.218 0.874-2.484 1.94l-0.74 2.96c-0.268 1.066-1.35 1.692-2.408 1.39l-2.934-0.84c-1.058-0.304-2.376 0.228-2.924 1.18l-1 1.734c-0.548 0.954-0.354 2.358 0.44 3.124l2.192 2.118c0.79 0.766 0.79 2.016 0 2.782l-2.196 2.122c-0.79 0.766-0.988 2.17-0.438 3.124l1.002 1.734c0.548 0.954 1.866 1.484 2.924 1.182l2.934-0.84c1.056-0.306 2.14 0.32 2.406 1.386zM23 21c2.208 0 4 1.79 4 4 0 2.208-1.792 4-4 4s-4-1.792-4-4c0-2.21 1.792-4 4-4z"></path>
</symbol>
<symbol id="icon-spanner" viewBox="0 0 48 48">
<title>spanner</title>
<path class="path1" d="M40.57 14.238c-0.1-0.336-0.368-0.598-0.708-0.688-0.344-0.094-0.704 0.006-0.954 0.252l-5.232 5.114-3.828-0.766-0.762-3.814 5.29-5.17c0.252-0.246 0.356-0.606 0.274-0.948s-0.336-0.616-0.672-0.722c-1.062-0.332-2.036-0.496-2.978-0.496-5.514 0-10 4.486-10 10 0 0.646 0.076 1.3 0.236 2.020-1.124 0.926-2.192 1.724-3.402 2.628-1.73 1.292-3.69 2.754-6.364 5.012-1.57 1.372-2.47 3.318-2.47 5.34 0 3.86 3.14 7 7 7 2.042 0 3.986-0.912 5.324-2.5 2.298-2.694 3.782-4.672 5.088-6.418 0.884-1.182 1.664-2.222 2.566-3.32 0.72 0.162 1.376 0.238 2.022 0.238 5.514 0 10-4.486 10-10 0-0.874-0.136-1.75-0.43-2.762zM16 34c-1.106 0-2-0.894-2-2s0.894-2 2-2 2 0.894 2 2-0.894 2-2 2z"></path>
</symbol>
<symbol id="icon-star-outline" viewBox="0 0 48 48">
<title>star-outline</title>
<path class="path1" d="M33.71 41.932c-0.448 0-0.886-0.1-1.292-0.292-0.070-0.028-0.138-0.062-0.208-0.102l-8.214-4.686-8.214 4.688c-0.070 0.040-0.14 0.074-0.212 0.106-0.976 0.456-2.17 0.348-3.042-0.286-0.938-0.68-1.402-1.866-1.172-3.018l1.914-9.284c-0.748-0.68-1.924-1.75-3.204-2.914l-3.79-3.45c-0.054-0.050-0.11-0.106-0.156-0.164-0.75-0.792-1.018-1.94-0.68-2.984 0.346-1.048 1.24-1.824 2.32-2.018 0.068-0.016 0.134-0.028 0.204-0.036l9.402-1.042 3.892-8.62c0.034-0.076 0.072-0.15 0.12-0.22 0.524-0.946 1.528-1.542 2.618-1.542 1.086 0 2.088 0.596 2.618 1.54 0.042 0.072 0.082 0.146 0.12 0.224l3.896 8.624 9.402 1.042c0.068 0.006 0.136 0.018 0.208 0.034 1.078 0.2 1.972 0.972 2.316 2.024 0.34 1.042 0.070 2.196-0.68 2.988-0.048 0.052-0.102 0.108-0.156 0.156l-6.996 6.368 1.914 9.264c0.226 1.174-0.236 2.356-1.18 3.038-0.504 0.364-1.112 0.562-1.748 0.562zM17.412 28.804c-0.078 0.364-0.932 4.492-1.69 8.164l7.286-4.154c0.614-0.35 1.368-0.35 1.98 0l7.286 4.15-1.698-8.208c-0.142-0.692 0.090-1.41 0.616-1.884l6.2-5.644-8.336-0.922c-0.702-0.078-1.308-0.52-1.602-1.168l-3.456-7.642-3.452 7.642c-0.292 0.644-0.9 1.086-1.602 1.168l-8.336 0.922 6.2 5.644c0.544 0.492 0.768 1.234 0.604 1.932z"></path>
</symbol>
<symbol id="icon-mail" viewBox="0 0 48 48">
<title>mail</title>
<path d="M36.803,13.498H11.196c-2.198,0-3.985,1.717-3.985,3.827v17.849c0,2.11,1.788,3.826,3.985,3.826h25.607
	c2.198,0,3.986-1.716,3.986-3.826V17.325C40.789,15.215,39.001,13.498,36.803,13.498z M36.803,35.621H11.196
	c-0.323,0-0.606-0.21-0.606-0.447V19.686l11.582,9.777c0.237,0.2,0.539,0.311,0.85,0.311h1.957c0.312,0,0.613-0.11,0.851-0.311
	l11.582-9.777v15.488C37.409,35.411,37.126,35.621,36.803,35.621z M23.999,26.42l-11.264-9.543h22.529L23.999,26.42z"/>
</symbol>
<symbol id="icon-delay" viewBox="0 0 48 48">
<title>delay</title>
<path class="path1" d="M32 26c0-1.1-0.9-2-2-2h-6c-1.1 0-2 0.9-2 2s0.9 2 2 2h6c1.1 0 2-0.9 2-2z"></path>
<path class="path2" d="M24 12c7.718 0 14 6.282 14 14s-6.282 14-14 14-14-6.282-14-14 6.282-14 14-14M24 8c-9.942 0-18 8.058-18 18s8.058 18 18 18 18-8.058 18-18-8.058-18-18-18z"></path>
<path class="path3" d="M26 20c0-1.1-0.9-2-2-2s-2 0.9-2 2v6c0 1.1 0.9 2 2 2s2-0.9 2-2v-6z"></path>
</symbol>
<symbol id="icon-cog-outline" viewBox="0 0 48 48">
<title>cog-outline</title>
<path class="path1" d="M26 10l1.71 6.84 6.778-1.942 3.002 5.2-5.070 4.898 5.070 4.902-3 5.2-6.78-1.942-1.71 6.844h-6l-1.71-6.844-6.78 1.942-3.002-5.2 5.070-4.902-5.068-4.898 3-5.2 6.78 1.942 1.71-6.84h6M26 6h-6c-1.836 0-3.436 1.25-3.878 3.032l-0.708 2.824-2.8-0.8c-0.368-0.106-0.738-0.156-1.104-0.156-1.4 0-2.736 0.74-3.462 2l-3 5.2c-0.918 1.592-0.634 3.604 0.684 4.876l2.094 2.022-2.096 2.030c-1.32 1.274-1.604 3.286-0.686 4.876l3.004 5.2c0.726 1.262 2.062 2 3.462 2 0.366 0 0.736-0.050 1.104-0.152l2.798-0.802 0.708 2.83c0.444 1.77 2.044 3.020 3.88 3.020h6c1.836 0 3.436-1.25 3.878-3.032l0.708-2.828 2.798 0.8c0.368 0.106 0.738 0.154 1.104 0.154 1.4 0 2.736-0.74 3.462-2l3-5.2c0.918-1.592 0.634-3.6-0.684-4.876l-2.094-2.026 2.094-2.026c1.32-1.274 1.602-3.288 0.684-4.876l-3-5.2c-0.73-1.262-2.062-2-3.464-2-0.368 0-0.736 0.050-1.102 0.152l-2.8 0.802-0.708-2.826c-0.44-1.768-2.040-3.018-3.876-3.018z"></path>
<path class="path2" d="M23 21c2.208 0 4 1.79 4 4 0 2.208-1.792 4-4 4s-4-1.792-4-4c0-2.21 1.792-4 4-4M23 19c-3.308 0-6 2.692-6 6s2.692 6 6 6 6-2.692 6-6-2.692-6-6-6z"></path>
</symbol>
<symbol id="icon-thumbs-up" viewBox="0 0 48 48">
<title>thumbs-up</title>
<path class="path1" d="M39.14 17.352c-0.782-0.288-5.024-0.812-7.766-1.12 0.43-2.51 0.626-4.81 0.626-7.232 0-2.758-2.244-5-5-5s-5 2.242-5 5c0 3.75-1.332 5.476-3.232 7.398-1.096-1.444-2.814-2.398-4.768-2.398-3.308 0-6 2.692-6 6v12c0 3.308 2.692 6 6 6 1.51 0 2.876-0.58 3.93-1.504 0.128 0.124 0.234 0.282 0.376 0.386 1.92 1.472 7.334 3.118 11.696 3.118 3.758 0 5.216-0.586 6.506-1.106 0.208-0.082 0.414-0.168 0.632-0.246 1.668-0.61 3.152-2.454 3.472-4.4l1.332-11.948c0.346-2.074-0.886-4.25-2.804-4.948zM14 34c-1.102 0-2-0.896-2-2v-12c0-1.104 0.898-2 2-2s2 0.896 2 2v12c0 1.104-0.898 2-2 2zM36.654 33.7c-0.074 0.448-0.584 1.082-0.886 1.192-0.262 0.098-0.508 0.198-0.752 0.292-1.090 0.438-2.032 0.816-5.016 0.816-3.828 0-8.236-1.506-9.264-2.292-0.316-0.24-0.736-1.128-0.736-1.708v-9.96c0.006-0.094 0.102-1.312 1.414-2.624 1.826-1.828 4.586-4.588 4.586-10.416 0-0.55 0.45-1 1-1s1 0.45 1 1c0 2.814-0.292 5.46-0.958 8.586l-0.594 2.792 2.642-0.376c1.206 0.1 7.866 0.894 8.668 1.1 0.116 0.060 0.264 0.366 0.222 0.646l-1.326 11.952z"></path>
</symbol>
<symbol id="icon-thumbs-down" viewBox="0 0 48 48">
<title>thumbs-down</title>
<path class="path1" d="M34 10c-1.51 0-2.876 0.578-3.93 1.502-0.128-0.124-0.232-0.28-0.376-0.384-1.92-1.474-7.33-3.118-11.694-3.118-3.758 0-5.214 0.586-6.504 1.104-0.206 0.084-0.414 0.17-0.632 0.248-1.668 0.61-3.156 2.458-3.476 4.4l-1.328 11.944c-0.348 2.078 0.882 4.254 2.8 4.956 0.788 0.288 5.024 0.81 7.766 1.12-0.43 2.512-0.624 4.81-0.624 7.232 0 2.758 2.242 5 5 5s5-2.242 5-5c0-3.75 1.334-5.474 3.232-7.398 1.096 1.448 2.816 2.398 4.768 2.398 3.306 0 5.998-2.694 5.998-6v-12c-0.002-3.312-2.692-6.004-6-6.004zM22 39c0 0.55-0.45 1-1 1s-1-0.45-1-1c0-3.61 0.512-6.482 0.958-8.586l0.594-2.796-2.642 0.376c-1.21-0.1-7.868-0.894-8.67-1.104-0.116-0.056-0.264-0.36-0.216-0.642l1.326-11.952c0.074-0.446 0.582-1.078 0.886-1.188 0.262-0.098 0.508-0.198 0.754-0.292 1.088-0.438 2.030-0.816 5.012-0.816 3.828 0 8.236 1.506 9.266 2.292 0.312 0.24 0.732 1.128 0.732 1.708v9.954c-0.002 0.052-0.080 1.298-1.414 2.632-1.826 1.826-4.586 4.586-4.586 10.414zM36 28c0 1.104-0.896 2-2 2s-2-0.896-2-2v-12c0-1.104 0.896-2 2-2s2 0.896 2 2v12z"></path>
</symbol>
<symbol id="icon-conclusion" viewBox="0 0 48 48">
<title>conclusion</title>
<path class="path1" d="M36 32.368v-3.702c0-3.86-3.14-7-7-7-1.654 0-3-1.346-3-3v-3.034c2.322-0.83 4-3.028 4-5.632 0-3.308-2.692-6-6-6s-6 2.692-6 6c0 2.604 1.678 4.802 4 5.63v3.036c0 1.654-1.346 3-3 3-3.86 0-7 3.14-7 7v3.702c-2.322 0.83-4 3.028-4 5.632 0 3.308 2.692 6 6 6s6-2.692 6-6c0-2.604-1.678-4.802-4-5.632v-3.702c0-1.654 1.346-3 3-3 1.958 0 3.728-0.814 5-2.116 1.272 1.302 3.042 2.116 5 2.116 1.654 0 3 1.346 3 3v3.702c-2.322 0.83-4 3.028-4 5.632 0 3.308 2.692 6 6 6s6-2.692 6-6c0-2.604-1.678-4.802-4-5.632zM14 40c-1.104 0-2-0.898-2-2s0.896-2 2-2 2 0.898 2 2-0.896 2-2 2zM24 8c1.104 0 2 0.898 2 2s-0.896 2-2 2-2-0.898-2-2 0.896-2 2-2zM34 40c-1.104 0-2-0.898-2-2s0.896-2 2-2 2 0.898 2 2-0.896 2-2 2z"></path>
</symbol>
<symbol id="icon-clock" viewBox="0 0 48 48">
<title>clock</title>
<path class="path1" d="M30.879 35.121l-9.879-9.879v-13.243h6v10.757l8.121 8.121zM24 0c-13.255 0-24 10.745-24 24s10.745 24 24 24 24-10.745 24-24-10.745-24-24-24zM24 42c-9.941 0-18-8.059-18-18s8.059-18 18-18c9.941 0 18 8.059 18 18s-8.059 18-18 18z"></path>
</symbol>
</defs>
</svg>
